<svg width="240" height="240" viewBox="0 0 240 240" fill="none" xmlns="http://www.w3.org/2000/svg">
  <defs>
    <linearGradient id="bg" x1="20" y1="20" x2="220" y2="220" gradientUnits="userSpaceOnUse">
      <stop stop-color="#84A9FF"/>
      <stop offset="1" stop-color="#385CB8"/>
    </linearGradient>
    <linearGradient id="shirt" x1="120" y1="134" x2="120" y2="220" gradientUnits="userSpaceOnUse">
      <stop stop-color="#223B7A"/>
      <stop offset="1" stop-color="#182549"/>
    </linearGradient>
  </defs>
  <rect width="240" height="240" rx="36" fill="url(#bg)"/>
  <circle cx="120" cy="92" r="48" fill="#FFD7BF"/>
  <path d="M72 202C78 168 97 150 120 150C143 150 162 168 168 202V220H72V202Z" fill="url(#shirt)"/>
  <path d="M84 71C89 53 103 42 120 42C137 42 151 53 156 71C150 63 141 58 120 58C99 58 90 63 84 71Z" fill="#1A2D61"/>
  <circle cx="103" cy="94" r="4" fill="#2A2A2A"/>
  <circle cx="137" cy="94" r="4" fill="#2A2A2A"/>
  <path d="M103 114C108 120 113 123 120 123C127 123 132 120 137 114" stroke="#B96A4E" stroke-width="4" stroke-linecap="round"/>
</svg>
